<svg width="16" height="20" viewBox="0 0 16 20" fill="none" xmlns="http://www.w3.org/2000/svg">
<path d="M7.16948 10.0039C6.97241 9.37891 6.97635 8.17188 7.09065 8.17188C7.42173 8.17188 7.3902 9.61328 7.16948 10.0039ZM7.10248 11.8477C6.79899 12.6367 6.42061 13.5391 5.98311 14.2969C6.70439 14.0234 7.52027 13.625 8.46228 13.4414C7.96171 13.0664 7.48086 12.5273 7.10248 11.8477ZM3.39358 16.7227C3.39358 16.7539 3.91385 16.5117 4.76914 15.1523C4.50507 15.3984 3.62218 16.1094 3.39358 16.7227ZM9.77478 6.25H15.1351V19.0625C15.1351 19.582 14.7134 20 14.1892 20H0.945946C0.421734 20 0 19.582 0 19.0625V0.9375C0 0.417969 0.421734 0 0.945946 0H8.82883V5.3125C8.82883 5.82812 9.25451 6.25 9.77478 6.25ZM9.45946 12.9609C8.67117 12.4844 8.14696 11.8281 7.77646 10.8594C7.95383 10.1367 8.23367 9.03906 8.02083 8.35156C7.83559 7.20312 6.34966 7.31641 6.13682 8.08594C5.93975 8.80078 6.12106 9.80859 6.45608 11.0938C5.99887 12.1719 5.32489 13.6172 4.84797 14.4453C4.84403 14.4453 4.84403 14.4492 4.84009 14.4492C3.77196 14.9922 1.93919 16.1875 2.692 17.1055C2.91273 17.375 3.32264 17.4961 3.53941 17.4961C4.24493 17.4961 4.94651 16.793 5.94764 15.082C6.96453 14.75 8.07996 14.3359 9.06137 14.1758C9.91667 14.6367 10.9178 14.9375 11.5839 14.9375C12.7348 14.9375 12.8136 13.6875 12.3604 13.2422C11.8125 12.7109 10.2202 12.8633 9.45946 12.9609ZM14.8592 4.10156L10.9966 0.273438C10.8193 0.0976562 10.5788 0 10.3266 0H10.0901V5H15.1351V4.76172C15.1351 4.51562 15.0366 4.27734 14.8592 4.10156ZM11.9386 14.0742C12.1002 13.9687 11.8401 13.6094 10.2517 13.7227C11.714 14.3398 11.9386 14.0742 11.9386 14.0742Z" fill="black"/>
</svg>
