<svg width="1440" height="304" viewBox="0 0 1440 304" fill="none" xmlns="http://www.w3.org/2000/svg">
<path d="M-112 379.082L-65.9183 462.577L-25.5968 82.7864L6.66045 307.699L59.6544 188.543L98.8239 462.577L141.45 307.699L184.075 441.168L224.397 57.9479L265.87 220.656L307.344 150.006L354.578 379.082L392.595 150.006L434.068 231.36L474.39 38.6798L517.016 386.98L552.729 188.543L597.659 379.082L641.436 248.488L682.91 469L723.231 334.124L765.857 49.3843L814.243 410.197L855.716 1L885.669 288.308L927.143 201.245L965.16 341.997L1017 379.082L1055.02 261.333L1095.34 334.124L1137.97 62.2296L1177.14 188.543L1222.07 130.738L1263.54 379.082L1303.86 239.924L1339.57 288.308L1387.96 113.611L1424.83 449.375L1481.28 261.333L1525.05 312.976L1560.77 49.3843L1598.78 253.483L1639.11 394.069L1677.12 222.797L1718.6 329.842L1760.07 68.6523L1805 387.646" stroke="#00A99D" stroke-width="2"/>
</svg>
