<svg width="18" height="18" viewBox="0 0 18 18" fill="none" xmlns="http://www.w3.org/2000/svg">
<path d="M9.01651 1.46325e-05C11.4214 0.00433318 13.605 0.952018 15.217 2.49261L16.5131 1.19651C17.0619 0.647833 18 1.03643 18 1.81239V6.67743C18 7.15846 17.6101 7.5484 17.129 7.5484H12.264C11.488 7.5484 11.0994 6.61025 11.6481 6.06155L13.1632 4.54643C12.0432 3.49767 10.5938 2.91674 9.05407 2.90346C5.70092 2.8745 2.87445 5.5881 2.90344 9.05256C2.93095 12.339 5.59539 15.0968 9 15.0968C10.4925 15.0968 11.9031 14.5641 13.0148 13.5887C13.1869 13.4377 13.4468 13.4469 13.6088 13.6088L15.0481 15.0481C15.2249 15.2249 15.2162 15.5132 15.0306 15.6808C13.4347 17.1222 11.3199 18 9 18C4.02946 18 3.62906e-05 13.9706 2.43782e-10 9.00008C-3.62901e-05 4.03524 4.05167 -0.00887649 9.01651 1.46325e-05Z" fill="white"/>
</svg>
