<svg width="80" height="108" viewBox="0 0 80 108" fill="none" xmlns="http://www.w3.org/2000/svg">
<path d="M46.6667 28.6875V0H5C2.22917 0 0 2.25703 0 5.0625V102.938C0 105.743 2.22917 108 5 108H75C77.7708 108 80 105.743 80 102.938V33.75H51.6667C48.9167 33.75 46.6667 31.4719 46.6667 28.6875ZM33.3333 85.2188C33.3333 87.4758 30.6458 88.5938 29.0625 87.0117L21.6667 79.3125H15.8333C14.4583 79.3125 13.3333 78.1734 13.3333 76.7812V64.9688C13.3333 63.5766 14.4583 62.4375 15.8333 62.4375H21.6667L29.0625 54.7383C30.6458 53.1352 33.3333 54.2742 33.3333 56.5312V85.2188ZM40.25 75.1781C42.1458 73.2164 42.1458 70.0945 40.25 68.1328C35.6458 63.3234 42.7917 56.2781 47.4167 61.0664C53.0833 66.9516 53.0833 76.3383 47.4167 82.2445C42.875 86.9484 35.5625 80.0508 40.25 75.1781ZM58.1667 50.4773C69.5 62.2687 69.5 81.0211 58.1667 92.8336C53.625 97.5586 46.2917 90.6609 51 85.7672C58.5417 77.9203 58.5625 65.4117 51 57.5437C46.3958 52.7344 53.5625 45.668 58.1667 50.4773ZM80 25.7133V27H53.3333V0H54.6042C55.9375 0 57.2083 0.527344 58.1458 1.47656L78.5417 22.1484C79.4792 23.0977 80 24.3844 80 25.7133Z" fill="black"/>
</svg>
