<svg width="80" height="107" viewBox="0 0 80 107" fill="none" xmlns="http://www.w3.org/2000/svg">
<path d="M46.6667 28.4219V0H5C2.22917 0 0 2.23613 0 5.01562V101.984C0 104.764 2.22917 107 5 107H75C77.7708 107 80 104.764 80 101.984V33.4375H51.6667C48.9167 33.4375 46.6667 31.1805 46.6667 28.4219ZM58.5625 53.5H63.5417C65.1458 53.5 66.3333 54.9838 65.9792 56.5721L58.0625 91.6814C57.8125 92.8309 56.7917 93.625 55.625 93.625H47.7083C46.5625 93.625 45.5625 92.8309 45.2917 91.7232C39.9167 70.0934 40.9583 74.7537 39.9583 68.6305H39.8542C39.625 71.6189 39.3542 72.2668 34.5208 91.7232C34.25 92.8309 33.25 93.625 32.1042 93.625H24.375C23.2083 93.625 22.1875 92.81 21.9375 91.6605L14.0625 56.5512C13.7083 54.9838 14.8958 53.5 16.5 53.5H21.6042C22.7917 53.5 23.8333 54.3359 24.0625 55.5271C27.3125 71.8279 28.25 78.4109 28.4375 81.065C28.7708 78.9334 29.9583 74.2313 34.5625 55.4227C34.8333 54.2941 35.8333 53.5209 37 53.5209H43.0625C44.2292 53.5209 45.2292 54.315 45.5 55.4436C50.5 76.4256 51.5 81.3576 51.6667 82.4861C51.625 80.1455 51.125 78.7662 56.1667 55.4854C56.375 54.315 57.3958 53.5 58.5625 53.5ZM80 25.4752V26.75H53.3333V0H54.6042C55.9375 0 57.2083 0.522461 58.1458 1.46289L78.5417 21.9434C79.4792 22.8838 80 24.1586 80 25.4752Z" fill="black"/>
</svg>
