<svg width="81" height="108" viewBox="0 0 81 108" fill="none" xmlns="http://www.w3.org/2000/svg">
<path d="M81 25.7219V27H54V0H55.2781C56.6207 7.01992e-06 57.9083 0.53334 58.8577 1.48268L79.5171 22.1421C80.4665 23.0915 80.9999 24.3792 81 25.7219ZM52.3125 33.75C49.5281 33.75 47.25 31.4719 47.25 28.6875V0H5.0625C2.26652 0 0 2.26652 0 5.0625V102.938C0 105.733 2.26652 108 5.0625 108H75.9375C78.7335 108 81 105.733 81 102.938V33.75H52.3125ZM23.74 37.125C29.3319 37.125 33.865 41.658 33.865 47.25C33.865 52.842 29.3319 57.375 23.74 57.375C18.148 57.375 13.615 52.842 13.615 47.25C13.615 41.658 18.1482 37.125 23.74 37.125ZM67.615 87.75H13.615L13.7173 77.5227L22.0525 69.1875C23.0409 68.199 24.5413 68.3013 25.5298 69.2898L33.865 77.625L55.7002 55.7898C56.6886 54.8013 58.2913 54.8013 59.28 55.7898L67.615 64.125V87.75Z" fill="black"/>
</svg>
