<svg width="81" height="107" viewBox="0 0 81 107" fill="none" xmlns="http://www.w3.org/2000/svg">
<path d="M47.25 28.4219V0H5.0625C2.25703 0 0 2.23613 0 5.01562V101.984C0 104.764 2.25703 107 5.0625 107H75.9375C78.743 107 81 104.764 81 101.984V33.4375H52.3125C49.5281 33.4375 47.25 31.1805 47.25 28.4219ZM61.7055 65.9304L64.0912 68.294C65.4096 69.6002 65.4096 71.7172 64.0912 73.0233L57.7842 79.272L64.125 85.554C65.4434 86.8602 65.4434 88.9772 64.125 90.2833L61.7393 92.647C60.4209 93.9531 58.2841 93.9531 56.9658 92.647L50.625 86.3628L44.2842 92.6449C42.9659 93.951 40.8291 93.951 39.5107 92.6449L37.125 90.2812C35.8066 88.9751 35.8066 86.8581 37.125 85.5519L43.4658 79.2699L30.953 66.875H27V76.9062C27 78.7537 25.4897 80.25 23.625 80.25H20.25C18.3853 80.25 16.875 78.7537 16.875 76.9062V43.4688C16.875 41.6213 18.3853 40.125 20.25 40.125H37.125C44.5816 40.125 50.625 46.1124 50.625 53.5C50.625 58.5616 47.752 62.9147 43.567 65.1864L50.625 72.179L56.932 65.9304C58.2504 64.6242 60.3872 64.6242 61.7055 65.9304ZM37.125 56.8438H27V50.1562H37.125C38.9855 50.1562 40.5 51.6568 40.5 53.5C40.5 55.3432 38.9855 56.8438 37.125 56.8438ZM81 25.4752V26.75H54V0H55.2867C56.6367 0 57.9234 0.522461 58.8727 1.46289L79.5234 21.9434C80.4727 22.8838 81 24.1586 81 25.4752Z" fill="black"/>
</svg>
