<svg width="80" height="107" viewBox="0 0 80 107" fill="none" xmlns="http://www.w3.org/2000/svg">
<path d="M46.6667 28.4219V0H5C2.22917 0 0 2.23613 0 5.01562V101.984C0 104.764 2.22917 107 5 107H75C77.7708 107 80 104.764 80 101.984V33.4375H51.6667C48.9167 33.4375 46.6667 31.1805 46.6667 28.4219ZM59.1875 50.6787L46.6667 70.2188L59.1875 89.7588C60.25 91.4307 59.0625 93.625 57.0833 93.625H49.8125C48.8958 93.625 48.0417 93.1234 47.6042 92.3084C43.5208 84.7432 40 77.9512 40 77.9512C38.6667 81.0441 37.9167 82.1309 32.375 92.3293C31.9375 93.1443 31.1042 93.6459 30.1875 93.6459H22.9167C20.9375 93.6459 19.75 91.4516 20.8125 89.7797L33.375 70.2396L20.8125 50.6996C19.7292 49.0277 20.9375 46.8334 22.9167 46.8334H30.1667C31.0833 46.8334 31.9375 47.335 32.375 48.15C37.8125 58.3484 36.5417 55.1719 40 62.4654C40 62.4654 41.2708 60.0203 47.625 48.15C48.0625 47.335 48.9167 46.8334 49.8333 46.8334H57.0833C59.0625 46.8125 60.25 49.0068 59.1875 50.6787ZM80 25.4752V26.75H53.3333V0H54.6042C55.9375 0 57.2083 0.522461 58.1458 1.46289L78.5417 21.9434C79.4792 22.8838 80 24.1586 80 25.4752Z" fill="black"/>
</svg>
