<svg width="80" height="107" viewBox="0 0 80 107" fill="none" xmlns="http://www.w3.org/2000/svg">
<path d="M40.3542 56.6766C42.1875 56.6766 43.5833 57.2408 44.5833 58.3693C46.5833 60.6473 46.625 65.2031 44.5417 67.5855C43.5208 68.7559 42.0625 69.3619 40.1458 69.3619H34.5417V56.6766H40.3542ZM78.5417 21.9434L58.125 1.46289C57.1875 0.522461 55.9167 0 54.5833 0H53.3333V26.75H80V25.4752C80 24.1586 79.4792 22.8838 78.5417 21.9434ZM46.6667 28.4219V0H5C2.22917 0 0 2.23613 0 5.01562V101.984C0 104.764 2.22917 107 5 107H75C77.7708 107 80 104.764 80 101.984V33.4375H51.6667C48.9167 33.4375 46.6667 31.1805 46.6667 28.4219ZM57.7083 62.9461C57.7083 81.8174 39.2083 79.1633 34.5625 79.1633V91.1172C34.5625 92.4965 33.4375 93.625 32.0625 93.625H25.6458C24.2708 93.625 23.1458 92.4965 23.1458 91.1172V49.3621C23.1458 47.9828 24.2708 46.8543 25.6458 46.8543H42.5208C51.7917 46.8543 57.7083 53.709 57.7083 62.9461Z" fill="black"/>
</svg>
